<?xml version="1.0" encoding="UTF-8" standalone="no"?>
<svg
   xmlns:dc="http://purl.org/dc/elements/1.1/"
   xmlns:cc="http://creativecommons.org/ns#"
   xmlns:rdf="http://www.w3.org/1999/02/22-rdf-syntax-ns#"
   xmlns:svg="http://www.w3.org/2000/svg"
   xmlns="http://www.w3.org/2000/svg"
   xmlns:xlink="http://www.w3.org/1999/xlink"
   id="svg8"
   version="1.1"
   viewBox="0 0 264.58333 264.58334"
   height="1000"
   width="1000">
  <defs
     id="defs2">
    <linearGradient
       id="linearGradient952">
      <stop
         id="stop972"
         offset="0"
         style="stop-color:#40a477;stop-opacity:1" />
      <stop
         style="stop-color:#40a4ae;stop-opacity:1"
         offset="0.5336777"
         id="stop977" />
      <stop
         id="stop974"
         offset="1"
         style="stop-color:#4e8ab1;stop-opacity:1" />
    </linearGradient>
    <linearGradient
       gradientTransform="matrix(1.4631126,0,0,1.2814062,-20.279621,-64.774367)"
       spreadMethod="pad"
       gradientUnits="userSpaceOnUse"
       y2="141.86674"
       x2="188.52126"
       y1="143.02757"
       x1="23.657841"
       id="linearGradient954"
       xlink:href="#linearGradient952" />
  </defs>
  <metadata
     id="metadata5">
    <rdf:RDF>
      <cc:Work
         rdf:about="">
        <dc:format>image/svg+xml</dc:format>
        <dc:type
           rdf:resource="http://purl.org/dc/dcmitype/StillImage" />
        <dc:title></dc:title>
      </cc:Work>
    </rdf:RDF>
  </metadata>
  <g
     id="layer5">
    <g
       style="stroke:#ffffff;stroke-opacity:0.1"
       id="g1435"
       transform="matrix(1.2814537,0,0,1.2814537,-4.205202,-66.086561)">
      <rect
         style="opacity:0.994;fill:none;fill-opacity:1;stroke:#ffffff;stroke-width:0.264583;stroke-linecap:round;stroke-linejoin:round;stroke-miterlimit:4;stroke-dasharray:none;stroke-opacity:0.1"
         id="rect984"
         width="20"
         height="20"
         x="7.4137568"
         y="181.3046"
         ry="0" />
      <rect
         ry="0"
         y="181.3046"
         x="27.413755"
         height="20"
         width="20"
         id="rect984-3"
         style="opacity:0.994;fill:none;fill-opacity:1;stroke:#ffffff;stroke-width:0.264583;stroke-linecap:round;stroke-linejoin:round;stroke-miterlimit:4;stroke-dasharray:none;stroke-opacity:0.1" />
      <rect
         ry="0"
         y="181.3046"
         x="47.413757"
         height="20"
         width="20"
         id="rect984-6"
         style="opacity:0.994;fill:none;fill-opacity:1;stroke:#ffffff;stroke-width:0.264583;stroke-linecap:round;stroke-linejoin:round;stroke-miterlimit:4;stroke-dasharray:none;stroke-opacity:0.1" />
      <rect
         ry="0"
         y="181.3046"
         x="67.41375"
         height="20"
         width="20"
         id="rect984-0"
         style="opacity:0.994;fill:none;fill-opacity:1;stroke:#ffffff;stroke-width:0.264583;stroke-linecap:round;stroke-linejoin:round;stroke-miterlimit:4;stroke-dasharray:none;stroke-opacity:0.1" />
      <rect
         ry="0"
         y="181.3046"
         x="87.41375"
         height="20"
         width="20"
         id="rect984-62"
         style="opacity:0.994;fill:none;fill-opacity:1;stroke:#ffffff;stroke-width:0.264583;stroke-linecap:round;stroke-linejoin:round;stroke-miterlimit:4;stroke-dasharray:none;stroke-opacity:0.1" />
      <rect
         style="opacity:0.994;fill:none;fill-opacity:1;stroke:#ffffff;stroke-width:0.264583;stroke-linecap:round;stroke-linejoin:round;stroke-miterlimit:4;stroke-dasharray:none;stroke-opacity:0.1"
         id="rect984-3-6"
         width="20"
         height="20"
         x="107.41376"
         y="181.3046"
         ry="0" />
      <rect
         style="opacity:0.994;fill:none;fill-opacity:1;stroke:#ffffff;stroke-width:0.264583;stroke-linecap:round;stroke-linejoin:round;stroke-miterlimit:4;stroke-dasharray:none;stroke-opacity:0.1"
         id="rect984-6-1"
         width="20"
         height="20"
         x="127.41375"
         y="181.3046"
         ry="0" />
      <rect
         style="opacity:0.994;fill:none;fill-opacity:1;stroke:#ffffff;stroke-width:0.264583;stroke-linecap:round;stroke-linejoin:round;stroke-miterlimit:4;stroke-dasharray:none;stroke-opacity:0.1"
         id="rect984-0-8"
         width="20"
         height="20"
         x="147.41374"
         y="181.3046"
         ry="0" />
      <rect
         ry="0"
         y="181.3046"
         x="167.41374"
         height="20"
         width="20"
         id="rect984-6-1-7"
         style="opacity:0.994;fill:none;fill-opacity:1;stroke:#ffffff;stroke-width:0.264583;stroke-linecap:round;stroke-linejoin:round;stroke-miterlimit:4;stroke-dasharray:none;stroke-opacity:0.1" />
      <rect
         ry="0"
         y="181.3046"
         x="187.41373"
         height="20"
         width="20"
         id="rect984-0-8-9"
         style="opacity:0.994;fill:none;fill-opacity:1;stroke:#ffffff;stroke-width:0.264583;stroke-linecap:round;stroke-linejoin:round;stroke-miterlimit:4;stroke-dasharray:none;stroke-opacity:0.1" />
      <rect
         ry="0"
         y="161.3046"
         x="7.4137645"
         height="20"
         width="20"
         id="rect984-2"
         style="opacity:0.994;fill:none;fill-opacity:1;stroke:#ffffff;stroke-width:0.264583;stroke-linecap:round;stroke-linejoin:round;stroke-miterlimit:4;stroke-dasharray:none;stroke-opacity:0.1" />
      <rect
         style="opacity:0.994;fill:none;fill-opacity:1;stroke:#ffffff;stroke-width:0.264583;stroke-linecap:round;stroke-linejoin:round;stroke-miterlimit:4;stroke-dasharray:none;stroke-opacity:0.1"
         id="rect984-3-0"
         width="20"
         height="20"
         x="27.413763"
         y="161.3046"
         ry="0" />
      <rect
         style="opacity:0.994;fill:none;fill-opacity:1;stroke:#ffffff;stroke-width:0.264583;stroke-linecap:round;stroke-linejoin:round;stroke-miterlimit:4;stroke-dasharray:none;stroke-opacity:0.1"
         id="rect984-6-2"
         width="20"
         height="20"
         x="47.413769"
         y="161.3046"
         ry="0" />
      <rect
         style="opacity:0.994;fill:none;fill-opacity:1;stroke:#ffffff;stroke-width:0.264583;stroke-linecap:round;stroke-linejoin:round;stroke-miterlimit:4;stroke-dasharray:none;stroke-opacity:0.1"
         id="rect984-0-3"
         width="20"
         height="20"
         x="67.413757"
         y="161.3046"
         ry="0" />
      <rect
         style="opacity:0.994;fill:none;fill-opacity:1;stroke:#ffffff;stroke-width:0.264583;stroke-linecap:round;stroke-linejoin:round;stroke-miterlimit:4;stroke-dasharray:none;stroke-opacity:0.1"
         id="rect984-62-7"
         width="20"
         height="20"
         x="87.413757"
         y="161.3046"
         ry="0" />
      <rect
         ry="0"
         y="161.3046"
         x="107.41376"
         height="20"
         width="20"
         id="rect984-3-6-5"
         style="opacity:0.994;fill:none;fill-opacity:1;stroke:#ffffff;stroke-width:0.264583;stroke-linecap:round;stroke-linejoin:round;stroke-miterlimit:4;stroke-dasharray:none;stroke-opacity:0.1" />
      <rect
         ry="0"
         y="161.3046"
         x="127.41376"
         height="20"
         width="20"
         id="rect984-6-1-9"
         style="opacity:0.994;fill:none;fill-opacity:1;stroke:#ffffff;stroke-width:0.264583;stroke-linecap:round;stroke-linejoin:round;stroke-miterlimit:4;stroke-dasharray:none;stroke-opacity:0.1" />
      <rect
         ry="0"
         y="161.3046"
         x="147.41374"
         height="20"
         width="20"
         id="rect984-0-8-2"
         style="opacity:0.994;fill:none;fill-opacity:1;stroke:#ffffff;stroke-width:0.264583;stroke-linecap:round;stroke-linejoin:round;stroke-miterlimit:4;stroke-dasharray:none;stroke-opacity:0.1" />
      <rect
         style="opacity:0.994;fill:none;fill-opacity:1;stroke:#ffffff;stroke-width:0.264583;stroke-linecap:round;stroke-linejoin:round;stroke-miterlimit:4;stroke-dasharray:none;stroke-opacity:0.1"
         id="rect984-6-1-7-2"
         width="20"
         height="20"
         x="167.41374"
         y="161.3046"
         ry="0" />
      <rect
         style="opacity:0.994;fill:none;fill-opacity:1;stroke:#ffffff;stroke-width:0.264583;stroke-linecap:round;stroke-linejoin:round;stroke-miterlimit:4;stroke-dasharray:none;stroke-opacity:0.1"
         id="rect984-0-8-9-8"
         width="20"
         height="20"
         x="187.41371"
         y="161.3046"
         ry="0" />
      <rect
         ry="0"
         y="141.3046"
         x="7.4137588"
         height="20"
         width="20"
         id="rect984-9"
         style="opacity:0.994;fill:none;fill-opacity:1;stroke:#ffffff;stroke-width:0.264583;stroke-linecap:round;stroke-linejoin:round;stroke-miterlimit:4;stroke-dasharray:none;stroke-opacity:0.1" />
      <rect
         style="opacity:0.994;fill:none;fill-opacity:1;stroke:#ffffff;stroke-width:0.264583;stroke-linecap:round;stroke-linejoin:round;stroke-miterlimit:4;stroke-dasharray:none;stroke-opacity:0.1"
         id="rect984-3-7"
         width="20"
         height="20"
         x="27.413755"
         y="141.3046"
         ry="0" />
      <rect
         style="opacity:0.994;fill:none;fill-opacity:1;stroke:#ffffff;stroke-width:0.264583;stroke-linecap:round;stroke-linejoin:round;stroke-miterlimit:4;stroke-dasharray:none;stroke-opacity:0.1"
         id="rect984-6-3"
         width="20"
         height="20"
         x="47.413761"
         y="141.3046"
         ry="0" />
      <rect
         style="opacity:0.994;fill:none;fill-opacity:1;stroke:#ffffff;stroke-width:0.264583;stroke-linecap:round;stroke-linejoin:round;stroke-miterlimit:4;stroke-dasharray:none;stroke-opacity:0.1"
         id="rect984-0-6"
         width="20"
         height="20"
         x="67.41375"
         y="141.3046"
         ry="0" />
      <rect
         style="opacity:0.994;fill:none;fill-opacity:1;stroke:#ffffff;stroke-width:0.264583;stroke-linecap:round;stroke-linejoin:round;stroke-miterlimit:4;stroke-dasharray:none;stroke-opacity:0.1"
         id="rect984-62-1"
         width="20"
         height="20"
         x="87.41375"
         y="141.3046"
         ry="0" />
      <rect
         ry="0"
         y="141.3046"
         x="107.41376"
         height="20"
         width="20"
         id="rect984-3-6-2"
         style="opacity:0.994;fill:none;fill-opacity:1;stroke:#ffffff;stroke-width:0.264583;stroke-linecap:round;stroke-linejoin:round;stroke-miterlimit:4;stroke-dasharray:none;stroke-opacity:0.1" />
      <rect
         ry="0"
         y="141.3046"
         x="127.41376"
         height="20"
         width="20"
         id="rect984-6-1-93"
         style="opacity:0.994;fill:none;fill-opacity:1;stroke:#ffffff;stroke-width:0.264583;stroke-linecap:round;stroke-linejoin:round;stroke-miterlimit:4;stroke-dasharray:none;stroke-opacity:0.1" />
      <rect
         ry="0"
         y="141.3046"
         x="147.41376"
         height="20"
         width="20"
         id="rect984-0-8-1"
         style="opacity:0.994;fill:none;fill-opacity:1;stroke:#ffffff;stroke-width:0.264583;stroke-linecap:round;stroke-linejoin:round;stroke-miterlimit:4;stroke-dasharray:none;stroke-opacity:0.1" />
      <rect
         style="opacity:0.994;fill:none;fill-opacity:1;stroke:#ffffff;stroke-width:0.264583;stroke-linecap:round;stroke-linejoin:round;stroke-miterlimit:4;stroke-dasharray:none;stroke-opacity:0.1"
         id="rect984-6-1-7-9"
         width="20"
         height="20"
         x="167.41376"
         y="141.3046"
         ry="0" />
      <rect
         style="opacity:0.994;fill:none;fill-opacity:1;stroke:#ffffff;stroke-width:0.264583;stroke-linecap:round;stroke-linejoin:round;stroke-miterlimit:4;stroke-dasharray:none;stroke-opacity:0.1"
         id="rect984-0-8-9-4"
         width="20"
         height="20"
         x="187.41373"
         y="141.3046"
         ry="0" />
      <rect
         ry="0"
         y="121.3046"
         x="7.4137464"
         height="20"
         width="20"
         id="rect984-20"
         style="display:inline;opacity:0.994;fill:none;fill-opacity:1;stroke:#ffffff;stroke-width:0.264583;stroke-linecap:round;stroke-linejoin:round;stroke-miterlimit:4;stroke-dasharray:none;stroke-opacity:0.1" />
      <rect
         style="display:inline;opacity:0.994;fill:none;fill-opacity:1;stroke:#ffffff;stroke-width:0.264583;stroke-linecap:round;stroke-linejoin:round;stroke-miterlimit:4;stroke-dasharray:none;stroke-opacity:0.1"
         id="rect984-3-61"
         width="20"
         height="20"
         x="27.413744"
         y="121.3046"
         ry="0" />
      <rect
         style="display:inline;opacity:0.994;fill:none;fill-opacity:1;stroke:#ffffff;stroke-width:0.264583;stroke-linecap:round;stroke-linejoin:round;stroke-miterlimit:4;stroke-dasharray:none;stroke-opacity:0.1"
         id="rect984-6-5"
         width="20"
         height="20"
         x="47.41375"
         y="121.3046"
         ry="0" />
      <rect
         style="display:inline;opacity:0.994;fill:none;fill-opacity:1;stroke:#ffffff;stroke-width:0.264583;stroke-linecap:round;stroke-linejoin:round;stroke-miterlimit:4;stroke-dasharray:none;stroke-opacity:0.1"
         id="rect984-0-5"
         width="20"
         height="20"
         x="67.413742"
         y="121.3046"
         ry="0" />
      <rect
         style="display:inline;opacity:0.994;fill:none;fill-opacity:1;stroke:#ffffff;stroke-width:0.264583;stroke-linecap:round;stroke-linejoin:round;stroke-miterlimit:4;stroke-dasharray:none;stroke-opacity:0.1"
         id="rect984-62-4"
         width="20"
         height="20"
         x="87.413742"
         y="121.3046"
         ry="0" />
      <rect
         ry="0"
         y="121.3046"
         x="107.41376"
         height="20"
         width="20"
         id="rect984-3-6-7"
         style="display:inline;opacity:0.994;fill:none;fill-opacity:1;stroke:#ffffff;stroke-width:0.264583;stroke-linecap:round;stroke-linejoin:round;stroke-miterlimit:4;stroke-dasharray:none;stroke-opacity:0.1" />
      <rect
         ry="0"
         y="121.3046"
         x="127.41375"
         height="20"
         width="20"
         id="rect984-6-1-6"
         style="display:inline;opacity:0.994;fill:none;fill-opacity:1;stroke:#ffffff;stroke-width:0.264583;stroke-linecap:round;stroke-linejoin:round;stroke-miterlimit:4;stroke-dasharray:none;stroke-opacity:0.1" />
      <rect
         ry="0"
         y="121.3046"
         x="147.41374"
         height="20"
         width="20"
         id="rect984-0-8-5"
         style="display:inline;opacity:0.994;fill:none;fill-opacity:1;stroke:#ffffff;stroke-width:0.264583;stroke-linecap:round;stroke-linejoin:round;stroke-miterlimit:4;stroke-dasharray:none;stroke-opacity:0.1" />
      <rect
         style="display:inline;opacity:0.994;fill:none;fill-opacity:1;stroke:#ffffff;stroke-width:0.264583;stroke-linecap:round;stroke-linejoin:round;stroke-miterlimit:4;stroke-dasharray:none;stroke-opacity:0.1"
         id="rect984-6-1-7-6"
         width="20"
         height="20"
         x="167.41374"
         y="121.3046"
         ry="0" />
      <rect
         style="display:inline;opacity:0.994;fill:none;fill-opacity:1;stroke:#ffffff;stroke-width:0.264583;stroke-linecap:round;stroke-linejoin:round;stroke-miterlimit:4;stroke-dasharray:none;stroke-opacity:0.1"
         id="rect984-0-8-9-9"
         width="20"
         height="20"
         x="187.41371"
         y="121.3046"
         ry="0" />
      <rect
         ry="0"
         y="101.3046"
         x="7.4137626"
         height="20"
         width="20"
         id="rect984-1"
         style="display:inline;opacity:0.994;fill:none;fill-opacity:1;stroke:#ffffff;stroke-width:0.264583;stroke-linecap:round;stroke-linejoin:round;stroke-miterlimit:4;stroke-dasharray:none;stroke-opacity:0.1" />
      <rect
         style="display:inline;opacity:0.994;fill:none;fill-opacity:1;stroke:#ffffff;stroke-width:0.264583;stroke-linecap:round;stroke-linejoin:round;stroke-miterlimit:4;stroke-dasharray:none;stroke-opacity:0.1"
         id="rect984-3-5"
         width="20"
         height="20"
         x="27.413759"
         y="101.3046"
         ry="0" />
      <rect
         style="display:inline;opacity:0.994;fill:none;fill-opacity:1;stroke:#ffffff;stroke-width:0.264583;stroke-linecap:round;stroke-linejoin:round;stroke-miterlimit:4;stroke-dasharray:none;stroke-opacity:0.1"
         id="rect984-6-9"
         width="20"
         height="20"
         x="47.413765"
         y="101.3046"
         ry="0" />
      <rect
         style="display:inline;opacity:0.994;fill:none;fill-opacity:1;stroke:#ffffff;stroke-width:0.264583;stroke-linecap:round;stroke-linejoin:round;stroke-miterlimit:4;stroke-dasharray:none;stroke-opacity:0.1"
         id="rect984-0-7"
         width="20"
         height="20"
         x="67.413757"
         y="101.3046"
         ry="0" />
      <rect
         style="display:inline;opacity:0.994;fill:none;fill-opacity:1;stroke:#ffffff;stroke-width:0.264583;stroke-linecap:round;stroke-linejoin:round;stroke-miterlimit:4;stroke-dasharray:none;stroke-opacity:0.1"
         id="rect984-62-76"
         width="20"
         height="20"
         x="87.413757"
         y="101.3046"
         ry="0" />
      <rect
         ry="0"
         y="101.3046"
         x="107.41376"
         height="20"
         width="20"
         id="rect984-3-6-73"
         style="display:inline;opacity:0.994;fill:none;fill-opacity:1;stroke:#ffffff;stroke-width:0.264583;stroke-linecap:round;stroke-linejoin:round;stroke-miterlimit:4;stroke-dasharray:none;stroke-opacity:0.1" />
      <rect
         ry="0"
         y="101.3046"
         x="127.41376"
         height="20"
         width="20"
         id="rect984-6-1-65"
         style="display:inline;opacity:0.994;fill:none;fill-opacity:1;stroke:#ffffff;stroke-width:0.264583;stroke-linecap:round;stroke-linejoin:round;stroke-miterlimit:4;stroke-dasharray:none;stroke-opacity:0.1" />
      <rect
         ry="0"
         y="101.3046"
         x="147.41376"
         height="20"
         width="20"
         id="rect984-0-8-6"
         style="display:inline;opacity:0.994;fill:none;fill-opacity:1;stroke:#ffffff;stroke-width:0.264583;stroke-linecap:round;stroke-linejoin:round;stroke-miterlimit:4;stroke-dasharray:none;stroke-opacity:0.1" />
      <rect
         style="display:inline;opacity:0.994;fill:none;fill-opacity:1;stroke:#ffffff;stroke-width:0.264583;stroke-linecap:round;stroke-linejoin:round;stroke-miterlimit:4;stroke-dasharray:none;stroke-opacity:0.1"
         id="rect984-6-1-7-3"
         width="20"
         height="20"
         x="167.41376"
         y="101.3046"
         ry="0" />
      <rect
         style="display:inline;opacity:0.994;fill:none;fill-opacity:1;stroke:#ffffff;stroke-width:0.264583;stroke-linecap:round;stroke-linejoin:round;stroke-miterlimit:4;stroke-dasharray:none;stroke-opacity:0.1"
         id="rect984-0-8-9-94"
         width="20"
         height="20"
         x="187.41373"
         y="101.3046"
         ry="0" />
      <rect
         ry="0"
         y="81.304604"
         x="7.4137568"
         height="20"
         width="20"
         id="rect984-8"
         style="display:inline;opacity:0.994;fill:none;fill-opacity:1;stroke:#ffffff;stroke-width:0.264583;stroke-linecap:round;stroke-linejoin:round;stroke-miterlimit:4;stroke-dasharray:none;stroke-opacity:0.1" />
      <rect
         style="display:inline;opacity:0.994;fill:none;fill-opacity:1;stroke:#ffffff;stroke-width:0.264583;stroke-linecap:round;stroke-linejoin:round;stroke-miterlimit:4;stroke-dasharray:none;stroke-opacity:0.1"
         id="rect984-3-1"
         width="20"
         height="20"
         x="27.413754"
         y="81.304604"
         ry="0" />
      <rect
         style="display:inline;opacity:0.994;fill:none;fill-opacity:1;stroke:#ffffff;stroke-width:0.264583;stroke-linecap:round;stroke-linejoin:round;stroke-miterlimit:4;stroke-dasharray:none;stroke-opacity:0.1"
         id="rect984-6-29"
         width="20"
         height="20"
         x="47.413761"
         y="81.304604"
         ry="0" />
      <rect
         style="display:inline;opacity:0.994;fill:none;fill-opacity:1;stroke:#ffffff;stroke-width:0.264583;stroke-linecap:round;stroke-linejoin:round;stroke-miterlimit:4;stroke-dasharray:none;stroke-opacity:0.1"
         id="rect984-0-39"
         width="20"
         height="20"
         x="67.41375"
         y="81.304604"
         ry="0" />
      <rect
         style="display:inline;opacity:0.994;fill:none;fill-opacity:1;stroke:#ffffff;stroke-width:0.264583;stroke-linecap:round;stroke-linejoin:round;stroke-miterlimit:4;stroke-dasharray:none;stroke-opacity:0.1"
         id="rect984-62-0"
         width="20"
         height="20"
         x="87.41375"
         y="81.304604"
         ry="0" />
      <rect
         ry="0"
         y="81.304604"
         x="107.41376"
         height="20"
         width="20"
         id="rect984-3-6-8"
         style="display:inline;opacity:0.994;fill:none;fill-opacity:1;stroke:#ffffff;stroke-width:0.264583;stroke-linecap:round;stroke-linejoin:round;stroke-miterlimit:4;stroke-dasharray:none;stroke-opacity:0.1" />
      <rect
         ry="0"
         y="81.304604"
         x="127.41375"
         height="20"
         width="20"
         id="rect984-6-1-8"
         style="display:inline;opacity:0.994;fill:none;fill-opacity:1;stroke:#ffffff;stroke-width:0.264583;stroke-linecap:round;stroke-linejoin:round;stroke-miterlimit:4;stroke-dasharray:none;stroke-opacity:0.1" />
      <rect
         ry="0"
         y="81.304604"
         x="147.41374"
         height="20"
         width="20"
         id="rect984-0-8-50"
         style="display:inline;opacity:0.994;fill:none;fill-opacity:1;stroke:#ffffff;stroke-width:0.264583;stroke-linecap:round;stroke-linejoin:round;stroke-miterlimit:4;stroke-dasharray:none;stroke-opacity:0.1" />
      <rect
         style="display:inline;opacity:0.994;fill:none;fill-opacity:1;stroke:#ffffff;stroke-width:0.264583;stroke-linecap:round;stroke-linejoin:round;stroke-miterlimit:4;stroke-dasharray:none;stroke-opacity:0.1"
         id="rect984-6-1-7-96"
         width="20"
         height="20"
         x="167.41374"
         y="81.304604"
         ry="0" />
      <rect
         style="display:inline;opacity:0.994;fill:none;fill-opacity:1;stroke:#ffffff;stroke-width:0.264583;stroke-linecap:round;stroke-linejoin:round;stroke-miterlimit:4;stroke-dasharray:none;stroke-opacity:0.1"
         id="rect984-0-8-9-3"
         width="20"
         height="20"
         x="187.41374"
         y="81.304604"
         ry="0" />
    </g>
    <path
       id="path27"
       d="M 4.8858337,37.741292 5.2951838,191.87615 H 261.58588"
       style="fill:none;stroke:#566262;stroke-width:2.37335;stroke-linecap:round;stroke-linejoin:round;stroke-miterlimit:4;stroke-dasharray:none;stroke-opacity:1" />
  </g>
  <g
     id="layer1" />
  <g
     style="display:inline;"
     id="layer4">
    <path
       id="path10-3-2"
       d="M 257.70246,180.76086 C 248.60701,146.93864 225.85857,37.732981 202.39471,47.39883 179.54562,56.811423 168.65822,96.264113 155.05496,93.512652 131.47177,87.315722 134.18735,49.19836 118.88855,44.977524 98.792255,40.183423 19.597629,141.54452 13.563601,173.84443 l 5.339658,2.28306 C 23.435567,167.36198 85.58604,68.204801 108.79948,73.235275 c 19.62784,4.253453 21.93257,31.313485 43.0808,34.832805 20.19418,3.36054 31.46261,-34.44505 54.17887,-33.948012 20.2203,0.442434 36.58145,82.921492 42.79333,108.222562 z"
       style="opacity:0.994;fill:url(#linearGradient954);fill-opacity:1;stroke:#000000;stroke-width:0.52916667;stroke-linecap:butt;stroke-linejoin:miter;stroke-opacity:0.00510204;stroke-miterlimit:4;stroke-dasharray:none" />
    <path
       style="display:inline;opacity:0.994;fill:none;fill-opacity:1;stroke:#000000;stroke-width:0.36228px;stroke-linecap:butt;stroke-linejoin:miter;stroke-opacity:0.5"
       d="M 18.903257,176.12751 C 23.435565,167.36199 85.58604,68.204801 108.79948,73.235275 c 19.62784,4.253453 21.93257,31.313485 43.0808,34.832815 20.19418,3.36054 31.46261,-34.44506 54.17887,-33.948022 20.2203,0.442434 36.58145,82.921502 42.79333,108.222582 m 8.84998,-1.58178 C 248.60701,146.93865 225.85857,37.732981 202.39471,47.39883 179.54562,56.811423 168.65822,96.264113 155.05496,93.512652 131.47177,87.315722 134.18735,49.198362 118.88855,44.977524 98.792253,40.183423 19.597626,141.54453 13.563598,173.84444"
       id="path10-3-2-1" />
    <path
       id="path1009"
       transform="scale(0.26458333)"
       d="M 57.251953 740.32812 C 51.604187 740.32813 46.488135 741.00386 41.902344 742.35547 C 37.316552 743.70705 33.406065 745.6383 30.171875 748.14844 C 26.937685 750.65855 24.428623 753.6994 22.642578 757.27148 C 20.904804 760.84359 20.035156 764.85005 20.035156 769.29102 C 20.035156 773.00793 20.758886 776.29067 22.207031 779.13867 C 23.655176 781.9867 25.852314 784.52169 28.796875 786.74219 C 31.741436 788.96266 35.434023 790.91792 39.875 792.60742 C 44.36425 794.29695 49.602225 795.81638 55.587891 797.16797 C 58.001464 797.69897 60.486532 798.27872 63.044922 798.90625 C 65.603312 799.4855 68.090333 800.16123 70.503906 800.93359 C 72.965752 801.70593 75.28286 802.62358 77.455078 803.68555 C 79.627296 804.69924 81.532599 805.92879 83.173828 807.37695 C 84.81506 808.77681 86.094561 810.44219 87.011719 812.37305 C 87.977149 814.25563 88.460938 816.42877 88.460938 818.89062 C 88.460937 823.13851 87.519306 826.75912 85.636719 829.75195 C 83.754129 832.74478 81.291104 835.20586 78.25 837.13672 C 75.208896 839.0193 71.758204 840.39478 67.896484 841.26367 C 64.083037 842.13256 60.220539 842.56836 56.310547 842.56836 C 53.510801 842.56836 50.687861 842.25448 47.839844 841.62695 C 44.991824 840.99943 42.190927 840.08178 39.439453 838.875 C 36.736249 837.6682 34.155206 836.19676 31.693359 834.45898 C 29.279785 832.67296 27.058653 830.64377 25.03125 828.375 C 24.789893 828.03711 24.476016 827.69924 24.089844 827.36133 C 23.703672 827.02344 23.24583 826.85547 22.714844 826.85547 C 21.749414 826.85547 20.951748 827.12135 20.324219 827.65234 C 19.696689 828.18332 18.900977 828.93104 17.935547 829.89648 C 17.501104 830.28265 17.283203 830.66852 17.283203 831.05469 C 17.283203 831.48913 17.381133 831.875 17.574219 832.21289 C 17.767305 832.55081 18.03124 832.91266 18.369141 833.29883 C 20.734444 836.33994 23.341435 838.97093 26.189453 841.19141 C 29.037471 843.36363 32.054316 845.17488 35.240234 846.62305 C 38.474423 848.02291 41.853133 849.03653 45.376953 849.66406 C 48.900773 850.33987 52.497382 850.67773 56.166016 850.67773 C 61.765509 850.67773 67.027481 850.002 71.951172 848.65039 C 76.923135 847.25053 81.243476 845.19931 84.912109 842.49609 C 88.580743 839.7929 91.477617 836.43817 93.601562 832.43164 C 95.725508 828.42509 96.787109 823.76689 96.787109 818.45703 C 96.787109 815.07803 96.207344 812.10917 95.048828 809.55078 C 93.938584 806.99239 92.393194 804.74727 90.414062 802.81641 C 88.483203 800.88555 86.216035 799.24419 83.609375 797.89258 C 81.050985 796.49272 78.322071 795.2852 75.425781 794.27148 C 72.529491 793.20951 69.562588 792.29382 66.521484 791.52148 C 63.52865 790.74913 60.631777 790.02344 57.832031 789.34766 C 55.466727 788.81666 53.10163 788.23886 50.736328 787.61133 C 48.371024 786.9838 46.101905 786.28405 43.929688 785.51172 C 41.805742 784.69108 39.80251 783.79745 37.919922 782.83203 C 36.085605 781.81834 34.468233 780.6588 33.068359 779.35547 C 31.716757 778.00386 30.655156 776.50841 29.882812 774.86719 C 29.110469 773.17766 28.724609 771.24641 28.724609 769.07422 C 28.724609 766.27447 29.302422 763.61951 30.460938 761.10938 C 31.667725 758.59926 33.455009 756.40407 35.820312 754.52148 C 38.185616 752.6389 41.130477 751.16549 44.654297 750.10352 C 48.178114 748.99327 52.304548 748.4375 57.035156 748.4375 C 60.317618 748.4375 63.286475 748.75138 65.941406 749.37891 C 68.64461 749.95816 71.105684 750.75584 73.326172 751.76953 C 75.546662 752.78325 77.573888 753.94081 79.408203 755.24414 C 81.290791 756.54747 83.078074 757.92296 84.767578 759.37109 C 85.82955 760.28826 86.673251 760.74805 87.300781 760.74805 C 87.590409 760.74805 87.880292 760.62615 88.169922 760.38477 C 88.45955 760.1434 88.821415 759.82953 89.255859 759.44336 C 90.221289 758.52619 90.946971 757.82647 91.429688 757.34375 C 91.912401 756.81278 92.152344 756.35494 92.152344 755.96875 C 92.152344 755.58258 91.984384 755.2207 91.646484 754.88281 C 91.356854 754.49665 90.897059 753.98888 90.269531 753.36133 C 85.828554 748.96864 80.784484 745.71183 75.136719 743.58789 C 69.537225 741.41567 63.575518 740.32812 57.251953 740.32812 z M 669.32031 740.32812 C 663.67254 740.32813 658.55455 741.00386 653.96875 742.35547 C 649.38297 743.70705 645.47443 745.6383 642.24023 748.14844 C 639.00604 750.65855 636.49504 753.6994 634.70898 757.27148 C 632.97121 760.84359 632.10352 764.85005 632.10352 769.29102 C 632.10352 773.00793 632.82723 776.29067 634.27539 779.13867 C 635.72353 781.9867 637.91873 784.52169 640.86328 786.74219 C 643.80784 788.96266 647.50041 790.91792 651.94141 792.60742 C 656.43065 794.29695 661.66863 795.81638 667.6543 797.16797 C 670.06788 797.69897 672.55489 798.27872 675.11328 798.90625 C 677.67167 799.4855 680.15676 800.16123 682.57031 800.93359 C 685.03217 801.70593 687.34926 802.62358 689.52148 803.68555 C 691.6937 804.69924 693.60097 805.92879 695.24219 807.37695 C 696.88341 808.77681 698.16291 810.44219 699.08008 812.37305 C 700.04552 814.25563 700.52734 816.42877 700.52734 818.89062 C 700.52734 823.13851 699.58573 826.75912 697.70312 829.75195 C 695.82054 832.74478 693.35947 835.20586 690.31836 837.13672 C 687.27725 839.0193 683.82461 840.39478 679.96289 841.26367 C 676.14945 842.13256 672.28888 842.56836 668.37891 842.56836 C 665.57916 842.56836 662.75428 842.25448 659.90625 841.62695 C 657.05822 840.99943 654.25928 840.08178 651.50781 838.875 C 648.80462 837.6682 646.22162 836.19676 643.75977 834.45898 C 641.34618 832.67296 639.127 830.64377 637.09961 828.375 C 636.85825 828.03711 636.54437 827.69924 636.1582 827.36133 C 635.77201 827.02344 635.31222 826.85547 634.78125 826.85547 C 633.81581 826.85547 633.02011 827.12135 632.39258 827.65234 C 631.76529 828.18312 630.96883 828.93157 630.00391 829.89648 C 629.56946 830.28265 629.35156 830.66852 629.35156 831.05469 C 629.35156 831.48913 629.44762 831.875 629.64062 832.21289 C 629.83371 832.55081 630.09961 832.91266 630.4375 833.29883 C 632.8028 836.33994 635.40979 838.97093 638.25781 841.19141 C 641.10584 843.36363 644.12268 845.17488 647.30859 846.62305 C 650.54279 848.02291 653.92151 849.03653 657.44531 849.66406 C 660.96914 850.33987 664.56574 850.67773 668.23438 850.67773 C 673.83387 850.67773 679.09584 850.002 684.01953 848.65039 C 688.9915 847.25053 693.31183 845.19931 696.98047 842.49609 C 700.64908 839.7929 703.544 836.43817 705.66797 832.43164 C 707.79191 828.42509 708.85352 823.76689 708.85352 818.45703 C 708.85352 815.07803 708.27571 812.10917 707.11719 809.55078 C 706.00694 806.99239 704.46156 804.74727 702.48242 802.81641 C 700.55159 800.88555 698.28245 799.24419 695.67578 797.89258 C 693.11739 796.49272 690.39044 795.2852 687.49414 794.27148 C 684.59786 793.20951 681.629 792.29382 678.58789 791.52148 C 675.59506 790.74913 672.69819 790.02344 669.89844 789.34766 C 667.53313 788.81666 665.16804 788.23886 662.80273 787.61133 C 660.43743 786.9838 658.16831 786.28405 655.99609 785.51172 C 653.87215 784.69108 651.86891 783.79745 649.98633 782.83203 C 648.152 781.81834 646.53658 780.6588 645.13672 779.35547 C 643.78511 778.00386 642.72155 776.50841 641.94922 774.86719 C 641.17686 773.17766 640.79102 771.24641 640.79102 769.07422 C 640.79102 766.27447 641.37077 763.61951 642.5293 761.10938 C 643.73607 758.59926 645.52141 756.40407 647.88672 754.52148 C 650.25202 752.6389 653.19687 751.16549 656.7207 750.10352 C 660.24451 748.99327 664.37291 748.4375 669.10352 748.4375 C 672.38598 748.4375 675.35482 748.75138 678.00977 749.37891 C 680.71296 749.95816 683.17403 750.75584 685.39453 751.76953 C 687.615 752.78325 689.64223 753.94081 691.47656 755.24414 C 693.35915 756.54747 695.14449 757.92296 696.83398 759.37109 C 697.89596 760.28826 698.74161 760.74805 699.36914 760.74805 C 699.65878 760.74805 699.94867 760.62615 700.23828 760.38477 C 700.52792 760.1434 700.88977 759.82953 701.32422 759.44336 C 702.28966 758.52619 703.0134 757.82647 703.49609 757.34375 C 703.97882 756.81278 704.2207 756.35494 704.2207 755.96875 C 704.2207 755.58258 704.05078 755.2207 703.71289 754.88281 C 703.42325 754.49665 702.96542 753.98888 702.33789 753.36133 C 697.89692 748.96864 692.85285 745.71183 687.20508 743.58789 C 681.60558 741.41567 675.64387 740.32812 669.32031 740.32812 z M 246.63281 741.41406 C 245.86047 741.41406 245.30665 741.63196 244.96875 742.06641 C 244.63085 742.50085 244.34097 742.9827 244.09961 743.51367 L 203.40625 840.97461 C 203.06835 841.74697 202.70648 842.61661 202.32031 843.58203 C 201.98241 844.4992 201.64454 845.5128 201.30664 846.62305 C 201.25836 846.71955 201.23437 846.83949 201.23438 846.98438 L 201.23438 847.27539 C 201.23438 848.38556 202.00609 849.01137 203.55078 849.15625 L 207.38867 849.15625 C 207.53349 849.20438 207.75139 849.22852 208.04102 849.22852 C 209.19953 849.22852 210.04323 848.6267 210.57422 847.41992 C 211.97409 843.94437 213.51948 840.10586 215.20898 835.90625 C 216.94676 831.70662 218.75608 827.2903 220.63867 822.65625 L 275.52344 822.65625 L 285.66211 847.27344 C 286.1931 848.62502 287.06079 849.30078 288.26758 849.30078 C 288.36413 849.30078 288.46011 849.27689 288.55664 849.22852 L 288.84766 849.22852 L 292.68555 849.22852 C 294.23023 849.03543 295.00195 848.35967 295.00195 847.20117 C 295.00195 847.05634 294.97796 846.81641 294.92969 846.47852 C 294.88141 846.0923 294.83343 845.85041 294.78516 845.75391 L 252.28125 743.36914 C 251.99162 742.9347 251.67775 742.50085 251.33984 742.06641 C 251.00194 741.63196 250.42218 741.41406 249.60156 741.41406 L 249.3125 741.41406 L 246.92383 741.41406 L 246.63281 741.41406 z M 569.35547 741.41406 C 568.58313 741.41406 568.02734 741.63196 567.68945 742.06641 C 567.35156 742.50085 567.0617 742.9827 566.82031 743.51367 L 526.12695 840.97461 C 525.78904 841.74697 525.42718 842.61661 525.04102 843.58203 C 524.70313 844.4992 524.36526 845.5128 524.02734 846.62305 C 523.97922 846.71955 523.95508 846.83949 523.95508 846.98438 L 523.95508 847.27539 C 523.95508 848.38556 524.72877 849.01137 526.27344 849.15625 L 530.10938 849.15625 C 530.25421 849.20438 530.47211 849.22852 530.76172 849.22852 C 531.92024 849.22852 532.76588 848.6267 533.29688 847.41992 C 534.69674 843.94437 536.24019 840.10586 537.92969 835.90625 C 539.66746 831.70662 541.47875 827.2903 543.36133 822.65625 L 598.24609 822.65625 L 608.38281 847.27344 C 608.91381 848.62502 609.7815 849.30078 610.98828 849.30078 C 611.08479 849.30078 611.18279 849.27689 611.2793 849.22852 L 611.56836 849.22852 L 615.40625 849.22852 C 616.95094 849.03543 617.72266 848.35967 617.72266 847.20117 C 617.72266 847.05634 617.69877 846.81641 617.65039 846.47852 C 617.60226 846.0923 617.55424 845.85041 617.50586 845.75391 L 575.00195 743.36914 C 574.71232 742.9347 574.39844 742.50085 574.06055 742.06641 C 573.72263 741.63196 573.14483 741.41406 572.32422 741.41406 L 572.0332 741.41406 L 569.64453 741.41406 L 569.35547 741.41406 z M 496.05859 741.54102 C 495.70862 741.55311 495.36525 741.58456 495.02734 741.63281 C 494.39982 741.68109 493.82004 741.87305 493.28906 742.21094 C 492.75809 742.50058 492.37225 742.95841 492.13086 743.58594 L 454.33398 828.23047 L 416.53711 743.51367 C 416.05441 742.45178 415.40264 741.84996 414.58203 741.70508 L 410.09375 741.70508 L 409.80273 741.70508 C 409.12695 741.70508 408.47521 741.92102 407.84766 742.35547 C 407.2201 742.78991 406.85822 743.48966 406.76172 744.45508 L 397.20508 846.4043 C 397.20508 847.22491 397.42102 847.92658 397.85547 848.50586 C 398.28989 849.03683 398.94166 849.30078 399.81055 849.30078 L 402.85156 849.30078 C 404.63762 849.30078 405.53125 848.38509 405.53125 846.55078 L 413.64062 757.70703 C 419.8194 771.41613 425.95101 785.07688 432.0332 798.68945 C 438.1637 812.25372 444.31735 825.89051 450.49609 839.59961 C 450.97882 840.56513 451.41266 841.14293 451.79883 841.33594 C 452.185 841.48082 452.74076 841.55469 453.46484 841.55469 L 455.34766 841.55469 C 455.7821 841.55469 456.31388 841.38476 456.94141 841.04688 C 457.61719 840.66071 458.07502 840.17888 458.31641 839.59961 L 495.09961 757.70703 L 503.20898 846.55078 C 503.30554 848.33681 504.22319 849.22852 505.96094 849.22852 L 509.00195 849.22852 C 510.73973 849.22852 511.60742 848.3608 511.60742 846.62305 L 511.60742 846.47852 C 509.9662 829.34214 508.34883 812.35067 506.75586 795.50391 C 505.16289 778.60889 503.57146 761.59146 501.97852 744.45508 L 501.97852 743.94922 C 501.93024 743.27341 501.64035 742.71765 501.10938 742.2832 C 500.62665 741.80048 499.95092 741.55859 499.08203 741.55859 L 497.12695 741.55859 C 496.76491 741.53453 496.40857 741.52892 496.05859 741.54102 z M 112.97656 741.63281 C 112.15595 741.63281 111.5042 741.87275 111.02148 742.35547 C 110.58704 742.78991 110.36914 743.41767 110.36914 744.23828 L 110.36914 747.20703 C 110.36914 749.08961 111.23879 750.03125 112.97656 750.03125 L 146.86328 750.03125 L 146.86328 846.55078 C 146.86328 848.33681 147.75693 849.22852 149.54297 849.22852 L 152.51172 849.22852 C 154.29776 849.22852 155.18945 848.33681 155.18945 846.55078 L 155.18945 750.03125 L 188.78711 750.03125 C 189.75254 750.03125 190.47627 749.76537 190.95898 749.23438 C 191.4417 748.7034 191.68359 748.02764 191.68359 747.20703 L 191.68359 744.23828 C 191.58705 743.36939 191.27317 742.71765 190.74219 742.2832 C 190.25947 741.84876 189.60773 741.63281 188.78711 741.63281 L 112.97656 741.63281 z M 307.57031 741.63281 C 306.7497 741.63281 306.09795 741.87275 305.61523 742.35547 C 305.18079 742.78991 304.96484 743.41767 304.96484 744.23828 L 304.96484 747.20703 C 304.96484 749.08961 305.83254 750.03125 307.57031 750.03125 L 341.45703 750.03125 L 341.45703 846.55078 C 341.45703 848.33681 342.35067 849.22852 344.13672 849.22852 L 347.10547 849.22852 C 348.89151 849.22852 349.78516 848.33681 349.78516 846.55078 L 349.78516 750.03125 L 383.38086 750.03125 C 384.3463 750.03125 385.07197 749.76537 385.55469 749.23438 C 386.03738 748.7034 386.27734 748.02764 386.27734 747.20703 L 386.27734 744.23828 C 386.18081 743.36939 385.86694 742.71765 385.33594 742.2832 C 384.85324 741.84876 384.2015 741.63281 383.38086 741.63281 L 307.57031 741.63281 z M 725.04492 741.63281 C 724.22431 741.63281 723.57257 741.87275 723.08984 742.35547 C 722.6554 742.78991 722.4375 743.41767 722.4375 744.23828 L 722.4375 747.20703 C 722.4375 749.08961 723.30715 750.03125 725.04492 750.03125 L 758.93164 750.03125 L 758.93164 846.55078 C 758.93164 848.33681 759.82335 849.22852 761.60938 849.22852 L 764.57812 849.22852 C 766.36418 849.22852 767.25781 848.33681 767.25781 846.55078 L 767.25781 750.03125 L 800.85352 750.03125 C 801.81896 750.03125 802.54462 749.76537 803.02734 749.23438 C 803.51004 748.7034 803.75 748.02764 803.75 747.20703 L 803.75 744.23828 C 803.65347 743.36939 803.33959 742.71765 802.80859 742.2832 C 802.3259 741.84876 801.67415 741.63281 800.85352 741.63281 L 725.04492 741.63281 z M 822.42578 741.63281 C 821.60517 741.63281 820.9534 741.84876 820.4707 742.2832 C 819.98798 742.66937 819.74609 743.3451 819.74609 744.31055 L 819.74609 846.69531 C 819.74609 847.5642 819.96399 848.21595 820.39844 848.65039 C 820.83288 849.03656 821.3867 849.22852 822.0625 849.22852 L 893.09375 849.22852 C 894.87978 849.22852 895.77344 848.3608 895.77344 846.62305 L 895.77344 842.85742 C 895.77344 841.07139 894.85579 840.17773 893.02148 840.17773 L 828.86914 840.17773 L 828.86914 797.53125 L 879.69922 797.53125 C 880.61638 797.53125 881.29212 797.28936 881.72656 796.80664 C 882.20928 796.32394 882.45117 795.6722 882.45117 794.85156 L 882.45117 791.1582 C 882.45117 790.19276 882.1853 789.51703 881.6543 789.13086 C 881.1716 788.69642 880.51985 788.48047 879.69922 788.48047 L 828.86914 788.48047 L 828.86914 750.75586 L 892.08008 750.75586 C 893.0455 750.75586 893.74524 750.51397 894.17969 750.03125 C 894.66241 749.50025 894.9043 748.82452 894.9043 748.00391 L 894.9043 744.38281 C 894.9043 742.54851 893.98665 741.63281 892.15234 741.63281 L 822.42578 741.63281 z M 913.63086 741.63281 C 912.85853 741.63281 912.30469 741.82477 911.9668 742.21094 C 911.62888 742.54885 911.315 743.15262 911.02539 744.02148 L 911.02539 846.62305 C 911.02539 848.3608 911.89311 849.22852 913.63086 849.22852 L 916.74414 849.22852 C 918.48192 849.22852 919.35156 848.3608 919.35156 846.62305 L 919.35156 809.11523 L 954.61328 809.11523 C 955.86834 809.11523 956.97987 809.06721 957.94531 808.9707 C 958.95901 808.8259 959.94865 808.63396 960.91406 808.39258 L 978.72461 847.85352 C 979.11078 848.77066 979.73853 849.22852 980.60742 849.22852 L 984.51758 849.22852 C 985.43474 849.18014 986.11048 849.10822 986.54492 849.01172 C 986.97939 848.86694 987.24529 848.67498 987.3418 848.43359 C 987.4383 848.19223 987.48633 847.82842 987.48633 847.3457 C 987.48633 847.05609 987.36639 846.62224 987.125 846.04297 L 968.94922 806.21875 C 971.8938 804.91542 974.5747 803.22606 976.98828 801.15039 C 979.45011 799.02645 981.54933 796.63736 983.28711 793.98242 C 985.07316 791.32751 986.44865 788.43063 987.41406 785.29297 C 988.37951 782.15533 988.86133 778.87259 988.86133 775.44531 C 988.86133 770.81123 987.99364 766.46691 986.25586 762.41211 C 984.51808 758.30903 982.129 754.73835 979.08789 751.69727 C 976.09506 748.60788 972.54644 746.16887 968.44336 744.38281 C 964.38856 742.59688 960.02022 741.68119 955.33789 741.63281 L 913.63086 741.63281 z M 919.35156 749.88672 L 955.12109 749.88672 C 958.6932 749.88672 962.02392 750.56245 965.11328 751.91406 C 968.20267 753.26567 970.88164 755.09899 973.15039 757.41602 C 975.46744 759.73304 977.27675 762.46197 978.58008 765.59961 C 979.88339 768.689 980.53516 771.97171 980.53516 775.44727 C 980.53516 778.24701 980.10128 780.92599 979.23242 783.48438 C 978.41179 786.04276 977.22826 788.38387 975.68359 790.50781 C 974.18718 792.58348 972.37787 794.39281 970.25391 795.9375 C 968.12996 797.48219 965.81284 798.68971 963.30273 799.55859 C 961.51668 800.18615 959.7054 800.54803 957.87109 800.64453 C 956.03676 800.74104 954.17946 800.78906 952.29688 800.78906 L 951.13867 800.78906 L 919.35156 800.78906 L 919.35156 749.88672 z M 248.22656 755.67969 L 271.83203 813.5332 L 224.4043 813.5332 L 248.22656 755.67969 z M 570.94727 755.67969 L 594.55273 813.5332 L 547.12695 813.5332 L 570.94727 755.67969 z "
       style="font-style:normal;font-variant:normal;font-weight:normal;font-stretch:normal;font-size:medium;line-height:30.54999924;font-family:cocogoose;-inkscape-font-specification:cocogoose;letter-spacing:0px;word-spacing:0.79901803px;baseline-shift:baseline;fill:#ffffff;fill-opacity:0.65;stroke:none;stroke-width:1.32452023" />
  </g>
</svg>
